<svg width="60" height="61" viewBox="0 0 60 61" fill="none" xmlns="http://www.w3.org/2000/svg">
<path d="M24.6338 24.5C24.3338 20.3 29.6338 17.3 33.5338 19C34.8338 15.4 39.4338 15.4 41.4338 17.2C43.0338 16.3 46.6338 15.7 48.5338 17.7C52.4338 16.1 55.7338 22.3 49.5338 23C40.5338 21.5 30.4338 39.5 30.4338 39.5C28.7338 39.8 26.4338 39 26.9338 36.3C25.9338 36.4 24.3338 34.7 24.7338 33.1C20.6338 32 20.9338 25.6 24.6338 24.5" fill="#D8D2B8"/>
<path d="M25.4336 24.9C25.1336 20.2 31.3336 18.5 34.1336 19.6C35.1336 16.9 39.1336 15.7 41.4336 17.9C42.6336 17.1 46.4336 16.3 48.2336 18.2C52.4336 16.5 54.4336 23.2 48.6336 23.1L50.2336 32.1L36.6336 34.5C36.5336 35.5 35.1336 36.5 33.4336 36.2C33.7336 37.9 32.0336 39.4 30.4336 39.6C28.5336 39.8 27.0336 38 27.8336 35.9C26.0336 35.9 25.2336 34.3 25.6336 32.9C21.7336 31.9 21.7336 25.7 25.4336 24.9" fill="white"/>
<path d="M44.6334 35C46.7334 34.6 48.8334 36 49.1334 38C49.5334 40.1 48.0334 42 45.9334 42.4C43.8334 42.8 41.7334 41.4 41.4334 39.4C41.0334 37.4 42.5334 35.4 44.6334 35Z" fill="#FEE0AF"/>
<path d="M41.2225 48.6595C42.8542 48.3717 43.9592 46.9038 43.6906 45.381C43.422 43.8581 41.8815 42.8568 40.2498 43.1446C38.6181 43.4324 37.5132 44.9003 37.7818 46.4231C38.0504 47.946 39.5909 48.9473 41.2225 48.6595Z" fill="#FEE0AF"/>
<path d="M47.2569 49.2763C48.3447 49.0846 49.079 48.0915 48.8969 47.0581C48.7149 46.0246 47.6854 45.3422 46.5976 45.5339C45.5098 45.7256 44.7755 46.7187 44.9576 47.7521C45.1397 48.7855 46.1691 49.4679 47.2569 49.2763Z" fill="#FEE0AF"/>
<path d="M43.1334 50.8C43.9334 50.7 44.6334 51.1 44.7334 51.9C44.8334 52.6 44.3334 53.3 43.6334 53.4C42.8334 53.5 42.1334 53.1 42.0334 52.3C41.8334 51.7 42.3334 51 43.1334 50.8Z" fill="#FEE0AF"/>
<path opacity="0.8" d="M10.2339 9.09998L8.8339 17.3C5.9339 16.6 2.5339 16.4 1.7339 18.8C0.533903 21.9 -0.166097 28.1 0.0339034 31.2C0.233903 34.4 1.9339 37.9 4.7339 40L3.3339 48C2.5339 52.3 29.2339 57 30.0339 52.7L36.9339 13.8L10.2339 9.09998M3.5339 31.9C3.3339 29 3.4339 24.7 4.4339 22C4.8339 20.8 6.4339 20.7 8.1339 21.1L5.4339 36C4.3339 34.8 3.6339 33.3 3.5339 31.9ZM28.7339 49.4C28.1339 52.9 5.1339 48.9 5.8339 45.4L11.7339 11.9L34.7339 15.9L28.7339 49.4" fill="#A1B8C7"/>
<path d="M10.8336 23.7L31.3336 27.3L27.7336 48.1C27.1336 51.2 6.63362 47.6 7.23362 44.5L10.8336 23.7" fill="#FDB73E"/>
<path d="M39.0336 15.4C39.3336 10.7 33.5336 7.49996 29.2336 9.29996C27.8336 5.39996 22.7336 5.29996 20.5336 7.39996C18.7336 6.39996 14.7336 5.69996 12.7336 7.99996C8.43364 6.19996 4.83364 13.1 11.6336 13.8C21.6336 12.1 32.6336 32 32.6336 32C34.5336 32.3 37.0336 31.4 36.4336 28.4C37.5336 28.6 39.2336 26.6 38.9336 24.9C43.3336 23.7 43.0336 16.6 39.0336 15.4Z" fill="#D8D2B8"/>
<path d="M38.0335 15.9C38.3335 10.7 31.5335 8.80001 28.5335 10.1C27.4335 7.20001 23.0335 5.80001 20.4335 8.20001C19.1335 7.30001 15.0335 6.40001 13.0335 8.50001C8.43352 6.70001 6.13352 14 12.5335 13.9L10.8335 23.8L25.8335 26.4C25.9335 27.5 27.5335 28.6 29.3335 28.3C28.9335 30.2 30.8335 31.9 32.6335 32.1C34.6335 32.3 36.4335 30.3 35.4335 28.1C37.4335 28.1 38.2335 26.3 37.8335 24.8C42.1335 23.5 42.1335 16.7 38.0335 15.9" fill="white"/>
<path d="M30.7337 12.9C30.9337 11.1 29.5337 8.89998 26.2337 9.59998C25.8337 8.79998 24.9337 8.39998 23.5337 9.19998C25.1337 9.19998 25.6337 9.69998 25.9337 10.5C29.2337 10.5 29.5337 13.5 29.5337 13.5C29.5337 13.5 30.9337 13.6 31.3337 15.4C31.9337 14.6 31.8337 13.4 30.7337 12.9M32.5337 20.3C30.1337 18 27.7337 19 26.9337 20.6C25.7337 20.4 25.0337 21.3 24.9337 22.2C26.3337 20.9 27.5337 21.6 27.5337 21.6C27.5337 21.6 29.4337 19.3 32.2337 21.1C32.9337 20.5 33.6337 20.5 34.9337 21.3C34.2337 20 33.3337 19.9 32.5337 20.3" fill="#D8D2B8"/>
<path d="M16.9338 26.9C14.5338 26.5 12.3338 28 11.9338 30.2C11.5338 32.5 13.1338 34.6 15.5338 35.1C17.9338 35.5 20.1338 34 20.5338 31.8C20.9338 29.5 19.3338 27.4 16.9338 26.9Z" fill="#FEE0AF"/>
<path d="M24.4768 39.4895C24.7735 37.8033 23.5589 36.1804 21.7639 35.8646C19.9689 35.5488 18.2733 36.6596 17.9766 38.3458C17.68 40.032 18.8946 41.655 20.6895 41.9708C22.4845 42.2866 24.1801 41.1757 24.4768 39.4895Z" fill="#FEE0AF"/>
<path d="M14.7338 38.6C13.5338 38.4 12.4338 39.1 12.2338 40.3C12.0338 41.4 12.8338 42.5 14.0338 42.7C15.2338 42.9 16.3338 42.2 16.5338 41C16.7338 39.9 15.9338 38.8 14.7338 38.6ZM18.6338 44.4C17.8338 44.3 17.0338 44.8 16.8338 45.6C16.7338 46.4 17.2338 47.1 18.0338 47.3C18.8338 47.4 19.6338 46.9 19.8338 46.1C20.0338 45.3 19.5338 44.5 18.6338 44.4Z" fill="#FEE0AF"/>
<path d="M42.5339 12.8L52.1339 4.5L47.5339 1.2L42.5339 12.8ZM46.9339 14.5L56.0339 16.5V11.7L46.9339 14.5ZM39.3339 9.7L41.6339 0H36.7339L39.3339 9.7Z" fill="#42ADE2"/>
<path opacity="0.8" d="M26.5337 23.1L32.7337 58.5C33.4337 62.4 57.7337 58.2 57.0337 54.2L55.7337 47C58.2337 45.1 59.7337 41.8 59.9337 39C60.1337 36.1 59.5337 30.5 58.5337 27.7C57.7337 25.5 54.6337 25.8 52.0337 26.4L50.7337 19L26.5337 23.1M55.1337 43.2L52.7337 29.6C54.2337 29.3 55.7337 29.3 56.1337 30.4C56.9337 32.9 57.0337 36.8 56.9337 39.4C56.7337 40.8 56.1337 42.1 55.1337 43.2M28.6337 25L49.5337 21.3L54.9337 51.7C55.5337 54.9 34.6337 58.6 34.0337 55.4L28.6337 25Z" fill="#A1B8C7"/>
<path d="M50.2337 32.1L31.5337 35.4L34.8337 54.3C35.3337 57.2 54.0337 53.9 53.5337 51L50.2337 32.1Z" fill="#FDB73E"/>
</svg>
